<svg width="1024" height="1024" viewBox="0 0 1024 1024" fill="none" xmlns="http://www.w3.org/2000/svg">
<rect width="1024" height="1024" fill="#22215B"/>
<path d="M403.099 573.1C405.699 573.1 407.699 574.3 409.099 576.7C410.699 579.1 411.499 582.4 411.499 586.6C411.499 594.6 409.599 600.8 405.799 605.2C397.599 615.2 388.599 623.8 378.799 631C368.999 638 359.299 641.5 349.699 641.5C334.499 641.5 322.899 632.6 314.899 614.8C306.499 625.4 299.099 632.5 292.699 636.1C286.499 639.7 279.199 641.5 270.799 641.5C258.599 641.5 248.499 637 240.499 628C232.699 618.8 228.799 606.9 228.799 592.3C228.799 576.3 232.199 561.5 238.999 547.9C245.799 534.1 255.099 522.9 266.899 514.3C278.899 505.5 292.299 500.3 307.099 498.7C310.899 459.9 318.099 426.8 328.699 399.4C339.499 371.8 353.599 358 370.999 358C379.599 358 386.699 361.9 392.299 369.7C398.099 377.5 400.999 389.3 400.999 405.1C400.999 427.5 395.499 453.7 384.499 483.7C373.499 513.7 358.799 544.5 340.399 576.1C341.199 587.7 342.899 596 345.499 601C348.299 606 351.799 608.5 355.999 608.5C361.399 608.5 366.899 606.1 372.499 601.3C378.099 596.5 385.599 588.5 394.999 577.3C397.399 574.5 400.099 573.1 403.099 573.1ZM367.699 387.4C363.899 387.4 360.099 394.2 356.299 407.8C352.499 421.2 349.199 438.8 346.399 460.6C343.799 482.4 341.899 505.2 340.699 529C363.099 480.2 374.299 441 374.299 411.4C374.299 403.8 373.599 397.9 372.199 393.7C370.999 389.5 369.499 387.4 367.699 387.4ZM281.299 611.2C285.099 611.2 288.899 609.7 292.699 606.7C296.499 603.5 301.299 597.7 307.099 589.3C305.099 578.5 304.099 566.4 304.099 553C304.099 548.2 304.299 540.4 304.699 529.6C293.699 533 284.499 540.4 277.099 551.8C269.899 563 266.299 575.5 266.299 589.3C266.299 603.9 271.299 611.2 281.299 611.2ZM426.393 480.4C417.993 480.4 411.693 478.5 407.493 474.7C403.293 470.7 401.193 465.2 401.193 458.2C401.193 451.2 403.893 445.4 409.293 440.8C414.893 436 421.793 433.6 429.993 433.6C437.393 433.6 443.393 435.4 447.993 439C452.593 442.6 454.893 447.7 454.893 454.3C454.893 462.3 452.293 468.7 447.093 473.5C441.893 478.1 434.993 480.4 426.393 480.4ZM423.993 641.5C410.993 641.5 401.493 636.9 395.493 627.7C389.693 618.5 386.793 606.3 386.793 591.1C386.793 582.1 387.893 570.6 390.093 556.6C392.493 542.4 395.493 529.2 399.093 517C400.893 510.6 403.293 506.2 406.293 503.8C409.293 501.4 414.093 500.2 420.693 500.2C430.893 500.2 435.993 503.6 435.993 510.4C435.993 515.4 434.093 527 430.293 545.2C425.493 567.2 423.093 582.1 423.093 589.9C423.093 595.9 423.893 600.5 425.493 603.7C427.093 606.9 429.793 608.5 433.593 608.5C437.193 608.5 441.693 606 447.093 601C452.493 596 459.693 588.1 468.693 577.3C471.093 574.5 473.793 573.1 476.793 573.1C479.393 573.1 481.393 574.3 482.793 576.7C484.393 579.1 485.193 582.4 485.193 586.6C485.193 594.6 483.293 600.8 479.493 605.2C459.693 629.4 441.193 641.5 423.993 641.5ZM482.221 641.5C474.621 641.5 469.221 637.5 466.021 629.5C463.021 621.5 461.521 608.7 461.521 591.1C461.521 565.1 465.221 540.4 472.621 517C474.421 511.2 477.321 507 481.321 504.4C485.521 501.6 491.321 500.2 498.721 500.2C502.721 500.2 505.521 500.7 507.121 501.7C508.721 502.7 509.521 504.6 509.521 507.4C509.521 510.6 508.021 517.8 505.021 529C503.021 537 501.421 544 500.221 550C499.021 555.8 498.021 563.1 497.221 571.9C502.621 556.3 509.021 543.1 516.421 532.3C524.021 521.5 531.721 513.5 539.521 508.3C547.521 502.9 555.021 500.2 562.021 500.2C569.021 500.2 573.921 501.8 576.721 505C579.721 508.2 581.221 513.1 581.221 519.7C581.221 526.1 579.321 537.7 575.521 554.5C573.921 561.7 572.821 567.1 572.221 570.7C582.221 546.1 593.321 528.2 605.521 517C617.721 505.8 629.121 500.2 639.722 500.2C652.721 500.2 659.221 506.7 659.221 519.7C659.221 527.5 657.021 541.6 652.621 562C648.821 579.4 646.921 590.9 646.921 596.5C646.921 604.5 649.821 608.5 655.621 608.5C659.621 608.5 664.321 606.1 669.721 601.3C675.321 596.3 682.721 588.3 691.921 577.3C694.321 574.5 697.021 573.1 700.021 573.1C702.621 573.1 704.621 574.3 706.022 576.7C707.621 579.1 708.421 582.4 708.421 586.6C708.421 594.6 706.521 600.8 702.721 605.2C694.121 615.8 684.821 624.5 674.821 631.3C665.021 638.1 653.821 641.5 641.221 641.5C631.021 641.5 623.321 638.6 618.121 632.8C612.921 626.8 610.321 618.2 610.321 607C610.321 601.4 611.721 591.4 614.521 577C617.121 564.4 618.421 555.7 618.421 550.9C618.421 547.7 617.321 546.1 615.121 546.1C612.521 546.1 608.821 549.5 604.021 556.3C599.221 562.9 594.421 571.7 589.621 582.7C584.821 593.7 580.921 605.3 577.921 617.5C575.721 627.1 573.121 633.5 570.121 636.7C567.321 639.9 562.721 641.5 556.321 641.5C549.721 641.5 544.721 638.4 541.321 632.2C538.121 625.8 536.521 618.1 536.521 609.1C536.521 601.5 537.521 590.5 539.521 576.1C541.121 563.3 541.921 554.9 541.921 550.9C541.921 547.7 540.821 546.1 538.621 546.1C535.621 546.1 531.821 549.7 527.221 556.9C522.621 564.1 518.121 573.3 513.721 584.5C509.521 595.7 506.121 606.7 503.521 617.5C501.321 626.9 498.721 633.3 495.721 636.7C492.921 639.9 488.421 641.5 482.221 641.5ZM734.864 641.5C723.064 641.5 712.964 638.6 704.564 632.8C696.364 626.8 690.164 619 685.964 609.4C681.764 599.8 679.664 589.5 679.664 578.5C679.664 563.3 682.464 549.8 688.064 538C693.864 526 701.664 516.7 711.464 510.1C721.264 503.3 732.264 499.9 744.464 499.9C756.264 499.9 766.364 502.9 774.764 508.9C783.164 514.7 789.464 522.4 793.664 532C797.864 541.6 799.964 551.9 799.964 562.9C799.964 578.1 797.064 591.7 791.264 603.7C785.464 615.5 777.564 624.8 767.564 631.6C757.764 638.2 746.864 641.5 734.864 641.5ZM738.164 609.1C744.964 609.1 750.664 605.4 755.264 598C760.064 590.6 762.464 579.8 762.464 565.6C762.464 554.6 760.464 546.3 756.464 540.7C752.464 535.1 747.664 532.3 742.064 532.3C734.864 532.3 728.864 536 724.064 543.4C719.464 550.6 717.164 561.4 717.164 575.8C717.164 587.2 719.164 595.6 723.164 601C727.164 606.4 732.164 609.1 738.164 609.1Z" fill="#FF7000"/>
</svg>
