<svg id="Layer_1" data-name="Layer 1" xmlns="http://www.w3.org/2000/svg" viewBox="0 0 1024 1024"><defs><style>.cls-1{fill:#fff;}.cls-2{fill:#f6a13a;}</style></defs><title>mam</title><rect class="cls-1" width="1024" height="1024" rx="12" ry="12"/><path class="cls-2" d="M885.2,773.34a18.33,18.33,0,0,1,0,36.66H590.46L723.23,555.06H317L428.49,810H138.8a18.33,18.33,0,0,1,0-36.66h40a18.91,18.91,0,0,0,18.91-18.91V232.91A18.9,18.9,0,0,1,216.65,214H344.31L504.1,394.52a9.45,9.45,0,0,0,14.11.05l156.64-174.3A18.9,18.9,0,0,1,688.91,214H807.35a18.91,18.91,0,0,1,18.91,18.91V754.43a18.91,18.91,0,0,0,18.91,18.91Z"/><path class="cls-1" d="M441.42,519.52a2.84,2.84,0,0,1-1.36-.35,3,3,0,0,1-1.08-1l-2.48-3.53a30.22,30.22,0,0,1-4.83-11.3,31.29,31.29,0,0,1,0-12.42l4.48-22.39a24.4,24.4,0,0,0,0-9.67,23.58,23.58,0,0,0-3.77-8.78l-2.48-3.54a3.35,3.35,0,0,1-.51-1.14,3.4,3.4,0,0,1-.06-1.27,3.32,3.32,0,0,1,.39-1.2,3.16,3.16,0,0,1,.79-1,2.9,2.9,0,0,1,2.26-.62,3.14,3.14,0,0,1,1.12.43,3,3,0,0,1,.88.85l2.48,3.53a30.24,30.24,0,0,1,4.84,11.3,31.29,31.29,0,0,1,0,12.42l-4.49,22.39a24.4,24.4,0,0,0,0,9.67,23.4,23.4,0,0,0,3.76,8.78l2.48,3.54a3.36,3.36,0,0,1,.59,1.66,3.49,3.49,0,0,1-.3,1.75A3.25,3.25,0,0,1,443,519,2.9,2.9,0,0,1,441.42,519.52Z"/><path class="cls-1" d="M426.21,519.52a2.81,2.81,0,0,1-1.36-.35,3,3,0,0,1-1.08-1l-2.48-3.53a30.38,30.38,0,0,1-4.83-11.3,31.29,31.29,0,0,1,0-12.42l4.48-22.39a24.4,24.4,0,0,0,0-9.67,23.58,23.58,0,0,0-3.77-8.78l-2.48-3.54a3.35,3.35,0,0,1-.51-1.14,3.4,3.4,0,0,1-.06-1.27,3.32,3.32,0,0,1,.39-1.2,3.16,3.16,0,0,1,.79-1,2.9,2.9,0,0,1,2.26-.62,3.14,3.14,0,0,1,1.12.43,3,3,0,0,1,.88.85l2.48,3.53a30.24,30.24,0,0,1,4.84,11.3,31.29,31.29,0,0,1,0,12.42l-4.48,22.39a24.22,24.22,0,0,0,0,9.67,23.4,23.4,0,0,0,3.76,8.78l2.48,3.54a3.5,3.5,0,0,1,.29,3.41,3.25,3.25,0,0,1-1.12,1.31A2.9,2.9,0,0,1,426.21,519.52Z"/><path class="cls-1" d="M411,519.52a2.81,2.81,0,0,1-1.36-.35,3,3,0,0,1-1.08-1l-2.48-3.53a30.06,30.06,0,0,1-4.83-11.3,31.29,31.29,0,0,1,0-12.42l4.48-22.39a24.4,24.4,0,0,0,0-9.67,23.58,23.58,0,0,0-3.77-8.78l-2.48-3.54a3.56,3.56,0,0,1-.51-1.14,3.4,3.4,0,0,1-.06-1.27,3.32,3.32,0,0,1,.39-1.2,3.16,3.16,0,0,1,.79-1,2.9,2.9,0,0,1,2.26-.62,3.14,3.14,0,0,1,1.12.43,3,3,0,0,1,.88.85l2.48,3.53a30.24,30.24,0,0,1,4.84,11.3,31.29,31.29,0,0,1,0,12.42l-4.49,22.39a24.4,24.4,0,0,0,0,9.67,23.4,23.4,0,0,0,3.76,8.78l2.48,3.54A3.36,3.36,0,0,1,414,516a3.49,3.49,0,0,1-.3,1.75A3.25,3.25,0,0,1,412.6,519,2.92,2.92,0,0,1,411,519.52Z"/><path class="cls-1" d="M409.55,519.52a2.84,2.84,0,0,1-1.36-.35,3,3,0,0,1-1.07-1l-2.48-3.53a30.24,30.24,0,0,1-4.84-11.3,31.29,31.29,0,0,1,0-12.42l4.48-22.39a24.4,24.4,0,0,0,0-9.67,23.57,23.57,0,0,0-3.76-8.78L398,446.58a3.35,3.35,0,0,1-.51-1.14,3.63,3.63,0,0,1-.07-1.27,3.34,3.34,0,0,1,.4-1.2,3.16,3.16,0,0,1,.79-1,2.89,2.89,0,0,1,2.25-.62,3,3,0,0,1,1.12.43,2.88,2.88,0,0,1,.89.85l2.48,3.53a30.38,30.38,0,0,1,4.83,11.3,31.29,31.29,0,0,1,0,12.42l-4.48,22.39a24.4,24.4,0,0,0,0,9.67,23.58,23.58,0,0,0,3.77,8.78l2.47,3.54a3.37,3.37,0,0,1,.6,1.66,3.5,3.5,0,0,1-.31,1.75,3.18,3.18,0,0,1-1.12,1.31A2.87,2.87,0,0,1,409.55,519.52Z"/><path class="cls-1" d="M394.34,519.52a2.84,2.84,0,0,1-1.36-.35,3,3,0,0,1-1.07-1l-2.48-3.53a30.24,30.24,0,0,1-4.84-11.3,31.29,31.29,0,0,1,0-12.42L389,468.57a24.4,24.4,0,0,0,0-9.67,23.57,23.57,0,0,0-3.76-8.78l-2.48-3.54a3.35,3.35,0,0,1-.51-1.14,3.63,3.63,0,0,1-.07-1.27,3.34,3.34,0,0,1,.4-1.2,3.16,3.16,0,0,1,.79-1,2.89,2.89,0,0,1,2.25-.62,3,3,0,0,1,1.12.43,2.88,2.88,0,0,1,.89.85l2.48,3.53a30.06,30.06,0,0,1,4.83,11.3,31.1,31.1,0,0,1,0,12.42l-4.48,22.39a24.4,24.4,0,0,0,0,9.67,23.58,23.58,0,0,0,3.77,8.78l2.47,3.54a3.37,3.37,0,0,1,.6,1.66,3.5,3.5,0,0,1-.31,1.75,3.18,3.18,0,0,1-1.12,1.31A2.87,2.87,0,0,1,394.34,519.52Z"/><path class="cls-1" d="M379.13,519.52a2.87,2.87,0,0,1-1.36-.35,3,3,0,0,1-1.07-1l-2.48-3.53a30.24,30.24,0,0,1-4.84-11.3,31.29,31.29,0,0,1,0-12.42l4.48-22.39a24.4,24.4,0,0,0,0-9.67,23.57,23.57,0,0,0-3.76-8.78l-2.48-3.54a3.35,3.35,0,0,1-.51-1.14,3.63,3.63,0,0,1-.07-1.27,3.34,3.34,0,0,1,.4-1.2,3.16,3.16,0,0,1,.79-1,2.89,2.89,0,0,1,2.25-.62,3,3,0,0,1,1.12.43,2.88,2.88,0,0,1,.89.85l2.47,3.53a30.24,30.24,0,0,1,4.84,11.3,31.29,31.29,0,0,1,0,12.42l-4.48,22.39a24.4,24.4,0,0,0,0,9.67,23.58,23.58,0,0,0,3.77,8.78l2.47,3.54a3.37,3.37,0,0,1,.6,1.66,3.5,3.5,0,0,1-.31,1.75,3.18,3.18,0,0,1-1.12,1.31A2.87,2.87,0,0,1,379.13,519.52Z"/><path class="cls-1" d="M589.05,539.09H296.54v78c0,101.34,66.68,181.9,150.56,181.9h129c83.88,0,150.56-80.56,150.56-181.9v-78Z"/><path class="cls-1" d="M589.05,539.09H296.54v78c0,101.34,66.68,181.9,150.56,181.9h129c83.88,0,150.56-80.56,150.56-181.9v-78Z"/><path class="cls-1" d="M743,401.69a1,1,0,0,0-1.48-.06L592.3,561.45l15.45,4.16,146.72-149a1,1,0,0,0,0-1.36Z"/><path class="cls-1" d="M717,376.34a1,1,0,0,0-1.48,0l-146.15,163,15.53,3.82L728.75,391.06a1,1,0,0,0,0-1.37Z"/><path class="cls-2" d="M679.69,415.88l12.73,13.63-4.37,4.67-12.73-13.62Z"/><path class="cls-2" d="M671.43,424.74l12.73,13.63-4.37,4.68-12.73-13.63Z"/><path class="cls-2" d="M700.86,445.09l12.74,13.62-4.37,4.68-12.74-13.62Z"/><path class="cls-2" d="M692.32,453.65l12.74,13.62L700.69,472,688,458.33Z"/></svg>