<svg id="Layer_1" data-name="Layer 1" xmlns="http://www.w3.org/2000/svg" viewBox="0 0 1024 1024"><defs><style>.cls-1{fill:#fff;}.cls-2{fill:#fe8599;}.cls-3{fill:#fefcfc;}</style></defs><title>tickit</title><rect class="cls-1" width="1024" height="1024"/><path class="cls-2" d="M193.31,217.88h651c3,2.75,6.12,5.35,8.92,8.28,7.84,8.17,17.52,15.16,18.58,27.87q0,9,0,18.07v18.09c-.13,22.82-.2,45.65-.44,68.47,0,4.36,1.27,9.06-2.19,12.89l-6.8,2.22a12.41,12.41,0,0,0-9,2.27c-18.5,2.49-35,10.55-50.34,20.32-21.23,13.51-39.64,30.17-49.72,54.17-8.35,8.94-12.21,19.73-13.09,31.75l.1,0-1.3,2.11c-1.24,9.12-3.71,18.1-3.18,27.43,2.2,8.91.18,18.51,4.43,27.09a49.89,49.89,0,0,0,6.2,20.68,107.91,107.91,0,0,0,20.67,34.38c21.78,26.85,51,40.2,84.08,47,19.69,4.05,19.6,4.49,20.62,24.47q0,7.9,0,15.82t0,15.84c-.13,15.23,0,30.48-.46,45.7-.34,11.79,2,23.8-2.44,35.31l-6.76,4.71c-2.73,3.49-6,6.63-6.95,11.25-7,1-9.34,7.08-13.15,11.58q-313.65,0-627.3,0c-3.38,0-6.76.21-10.14.32-7.51,1.12-11.5-2.56-13-9.57A33.35,33.35,0,0,0,177.48,774c-2.93-1.65-5-5-9-4.47l-4.55-2.22-6.53-.65L156.74,749V728.68l0-18.06c1.43-7-2.87-16.09,7.21-20,2.81-.49,5.55-1.12,7.17-3.84,5-.58,7.9-3.89,10.3-7.87l3-4.23a8.46,8.46,0,0,0,4.69-6.88c2.7-4.29,1.8-9,1.68-13.65,1.91-17.77-9.12-27.35-22.46-35.48-3.36-2.64-7.15-3.13-11.22-2.2l-4.45-.86q-.21-14.65-.41-29.33,0-6.78,0-13.57V556.92c.14-7.57-.64-15.64,9.61-17.72l6.57-2.84c3.36-1,5.29-3.68,7.18-6.38L180,525.6a8.05,8.05,0,0,0,4.48-6.82c2.67-2.09,1.77-5.53,3-8.15,2.89-15.68-6-32-21.37-39.32l-4.4-.31L153,466.35q-.36-12.36-.71-24.71l0-13.57V412.26c-.36-7.88.42-15.19,9.3-18.4a14.93,14.93,0,0,0,9.05-4.47,15.78,15.78,0,0,0,6.77-6.69c3.48-2,6.33-4.51,6.87-8.82,2.2-1.75,2.32-4.23,2.36-6.74,5.12-14.66-3.59-33.82-18.31-40.29-1.83-3.62-5.12-4.8-8.85-5.22-4.38-5.43-1.13-12-2.67-17.87q0-9.06,0-18.1l0-18.08c2.66-5.81-4.76-15.45,5.76-18C179.76,245.42,188.62,233.85,193.31,217.88ZM486.93,590.42c9.85,1.84,16.93-2.07,23.24-9,39-42.67,78.29-85.05,117.09-127.88,9.59-10.6,9.15-24,3.74-36.14-7.34-16.53-26.07-20.95-38-9.76-28.43,26.81-56.83,53.66-84.92,80.83-17.87,17.27-17.18,17-36.35,1.25-21.43-17.63-27.5-25.39-53,.95-14.29,14.76-11.29,29.48-.12,40.8,14.48,14.69,28,30.37,42.09,45.41C467.89,584.51,474.48,593.69,486.93,590.42Z"/><path class="cls-3" d="M486.93,590.42c-12.45,3.27-19-5.91-26.19-13.52-14.14-15-27.61-30.72-42.09-45.41-11.17-11.32-14.17-26,.12-40.8,25.51-26.34,31.58-18.58,53-.95,19.17,15.76,18.48,16,36.35-1.25,28.09-27.17,56.49-54,84.92-80.83,11.88-11.19,30.61-6.77,38,9.76,5.41,12.17,5.85,25.54-3.74,36.14-38.8,42.83-78.11,85.21-117.09,127.88C503.86,588.35,496.78,592.26,486.93,590.42Z"/></svg>